# xmcd
#
# Track frame offsets:
#	150
#	11662
#	23730
#	37417
#	49857
#	67415
#	78510
#	94082
#	105527
#	131657
#	141745
#	165017
#	194400
#	207470
#	220127
#	233630
#	248522
#	262075
#	280545
#	305807
#
# Disc length: 4372
#
# Revision: 2
# Processed by: cddbd v1.5.1PL0 Copyright (c) Steve Scherf et al.
# Submitted via: audiograbber 1.80.04
# Normalized: r1:DSETVAR1
#
DISCID=2b111214
DTITLE=Various Artist - Definitive Blues
DYEAR=1996
DGENRE=Blues
TTITLE0=Hooker, John Lee - Boom! Boom!
TTITLE1=Hooker, John Lee - Whiskey And Wimmen
TTITLE2=Hooker, John Lee - Time Is Marchin'
TTITLE3=Hooker, John Lee - Don't You Remember Me
TTITLE4=Witherspoon, Jimmy - Ain't Nobody's Business
TTITLE5=Witherspoon, Jimmy - New Orleans Woman
TTITLE6=Witherspoon, Jimmy - No Rolling Blues
TTITLE7=Witherspoon, Jimmy - Sweet Lovin' Baby
TTITLE8=Hopkins, Sam Lightnin - Blowin' The Fuse
TTITLE9=Hopkins, Sam Lightnin - Don't Need No Job
TTITLE10=Hopkins, Sam Lightnin - Chain Gang Blues
TTITLE11=Hopkins, Sam Lightnin - Everybody's Blue
TTITLE12=Leadbelly - C C Rider
TTITLE13=Leadbelly - Baby Don't You Love Me No More
TTITLE14=Leadbelly - Matchbox Blues
TTITLE15=Leadbelly - Bourgeois Blues
TTITLE16=Howlin' Wolf - Highway 49
TTITLE17=Howlin' Wolf - Poor Boy
TTITLE18=Howlin' Wolf - Red Rooster
TTITLE19=Howlin' Wolf - Wang Dang Doodle
EXTD=
EXTT0=
EXTT1=
EXTT2=
EXTT3=
EXTT4=
EXTT5=
EXTT6=
EXTT7=
EXTT8=
EXTT9=
EXTT10=
EXTT11=
EXTT12=
EXTT13=
EXTT14=
EXTT15=
EXTT16=
EXTT17=
EXTT18=
EXTT19=
PLAYORDER=
